<?xml version="1.0" encoding="UTF-8" standalone="no"?>
<!-- Created with Inkscape (http://www.inkscape.org/) -->

<svg
   xmlns:dc="http://purl.org/dc/elements/1.1/"
   xmlns:cc="http://creativecommons.org/ns#"
   xmlns:rdf="http://www.w3.org/1999/02/22-rdf-syntax-ns#"
   xmlns:svg="http://www.w3.org/2000/svg"
   xmlns="http://www.w3.org/2000/svg"
   xmlns:sodipodi="http://sodipodi.sourceforge.net/DTD/sodipodi-0.dtd"
   xmlns:inkscape="http://www.inkscape.org/namespaces/inkscape"
   width="744.09448819"
   height="1052.3622047"
   id="svg3892"
   version="1.1"
   inkscape:version="0.48.4 r9939"
   sodipodi:docname="mecanismo_seqBTL.svg">
  <defs
     id="defs3894" />
  <sodipodi:namedview
     id="base"
     pagecolor="#ffffff"
     bordercolor="#666666"
     borderopacity="1.0"
     inkscape:pageopacity="0.0"
     inkscape:pageshadow="2"
     inkscape:zoom="1.979899"
     inkscape:cx="238.06811"
     inkscape:cy="902.42658"
     inkscape:document-units="px"
     inkscape:current-layer="g5215"
     showgrid="false"
     showguides="true"
     inkscape:guide-bbox="true"
     inkscape:window-width="1366"
     inkscape:window-height="750"
     inkscape:window-x="0"
     inkscape:window-y="18"
     inkscape:window-maximized="1" />
  <metadata
     id="metadata3897">
    <rdf:RDF>
      <cc:Work
         rdf:about="">
        <dc:format>image/svg+xml</dc:format>
        <dc:type
           rdf:resource="http://purl.org/dc/dcmitype/StillImage" />
        <dc:title></dc:title>
      </cc:Work>
    </rdf:RDF>
  </metadata>
  <g
     inkscape:label="Layer 1"
     inkscape:groupmode="layer"
     id="layer1">
    <g
       id="g5215"
       transform="translate(2.0337516,0)">
      <text
         inkscape:export-ydpi="250"
         inkscape:export-xdpi="250"
         inkscape:export-filename="/home/uciel/lab/Doctorado/Tesis/figuras_varias/procesamiento/seqBTL.png"
         sodipodi:linespacing="125%"
         id="text270079"
         y="359.34213"
         x="253.23491"
         style="font-size:9px;font-style:normal;font-weight:normal;line-height:125%;letter-spacing:0px;word-spacing:0px;fill:#000000;fill-opacity:1;stroke:none;font-family:Sans"
         xml:space="preserve"><tspan
           style="font-size:12px"
           y="359.34213"
           x="253.23491"
           id="tspan270081"
           sodipodi:role="line">base a loop</tspan></text>
      <text
         inkscape:export-ydpi="250"
         inkscape:export-xdpi="250"
         inkscape:export-filename="/home/uciel/lab/Doctorado/Tesis/figuras_varias/procesamiento/BTL.png"
         sodipodi:linespacing="125%"
         id="text270079-6"
         y="344.60349"
         x="255.80717"
         style="font-size:9px;font-style:normal;font-weight:normal;line-height:125%;letter-spacing:0px;word-spacing:0px;fill:#000000;fill-opacity:1;stroke:none;font-family:Sans"
         xml:space="preserve"><tspan
           style="font-size:12px"
           y="344.60349"
           x="255.80717"
           id="tspan270081-2"
           sodipodi:role="line">Secuencial</tspan></text>
    </g>
    <g
       transform="matrix(3.5433069,0,0,3.5433069,25.561157,-3494.5162)"
       style="fill-rule:evenodd"
       id="g6380"
       inkscape:export-filename="/home/uciel/lab/Doctorado/Tesis/figuras_varias/procesamiento/spanish/mecanismos.png"
       inkscape:export-xdpi="250"
       inkscape:export-ydpi="250">
      <path
         style="fill:none;stroke:#72706f;stroke-width:0.34999999"
         inkscape:connector-curvature="0"
         id="path6382"
         d="m 82.8757,1054.26 c 1.8364,-0.7247 4.3129,-5.3471 2.8646,-11.2395 -0.5161,-2.0994 -1.7096,-2.694 -2.4986,-4.1216 -0.2502,-0.4527 -0.147,1.6101 -0.147,2.1273"
         class="fil3 str52" />
      <path
         style="fill:none"
         inkscape:connector-curvature="0"
         id="path6384"
         d="m 83.0396,1038.83 c 0.6575,0.2229 1.2735,0.404 1.953,0.4028"
         class="fil3" />
      <path
         style="fill:#1f1a17;fill-rule:nonzero;stroke:#72706f;stroke-width:0.25"
         inkscape:connector-curvature="0"
         id="path6386"
         d="m 83.09,1038.93 c 0.3432,0.1164 0.6763,0.2217 1.017,0.2967 0.3154,0.07 0.6343,0.1118 0.9686,0.1112 l 0,-0.1732 c -0.3183,4e-4 -0.6229,-0.04 -0.9249,-0.1065 -0.3273,-0.072 -0.6553,-0.1761 -0.9954,-0.2913 L 83.09,1038.93 z"
         class="fil11 str53" />
    </g>
    <g
       transform="matrix(3.5433069,0,0,3.5433069,25.561157,-3494.5162)"
       style="fill-rule:evenodd"
       id="g6392"
       inkscape:export-filename="/home/uciel/lab/Doctorado/Tesis/figuras_varias/procesamiento/spanish/mecanismos.png"
       inkscape:export-xdpi="250"
       inkscape:export-ydpi="250">
      <path
         style="fill:none;stroke:#72706f;stroke-width:0.34999999"
         inkscape:connector-curvature="0"
         id="path6394"
         d="m 82.8757,1039.06 c 1.8364,-0.7248 4.3129,-5.3472 2.8646,-11.2395 -0.5161,-2.0995 -1.7096,-2.6941 -2.4986,-4.1217 -0.2502,-0.4527 -0.147,1.6102 -0.147,2.1273"
         class="fil3 str52" />
      <path
         style="fill:none"
         inkscape:connector-curvature="0"
         id="path6396"
         d="m 83.0396,1023.63 c 0.6575,0.223 1.2735,0.404 1.953,0.4029"
         class="fil3" />
      <path
         style="fill:#1f1a17;fill-rule:nonzero;stroke:#72706f;stroke-width:0.25"
         inkscape:connector-curvature="0"
         id="path6398"
         d="m 83.09,1023.72 c 0.3432,0.1164 0.6763,0.2217 1.017,0.2968 0.3154,0.069 0.6343,0.1117 0.9686,0.1112 l 0,-0.1733 c -0.3183,5e-4 -0.6229,-0.04 -0.9249,-0.1065 -0.3273,-0.072 -0.6553,-0.176 -0.9954,-0.2913 L 83.09,1023.72 z"
         class="fil11 str53" />
    </g>
    <g
       id="g5221">
      <path
         inkscape:export-ydpi="250"
         inkscape:export-xdpi="250"
         inkscape:export-filename="/home/uciel/lab/Doctorado/Tesis/figuras_varias/procesamiento/spanish/mecanismos.png"
         class="fil27 str47"
         d="m 283.38135,83.940767 c -6.56292,6.13063 -5.69374,17.914253 -0.0457,22.208033 -0.006,2.9087 -0.011,5.27527 -0.011,5.27527"
         id="path6086"
         inkscape:connector-curvature="0"
         style="fill:none;stroke:#1f1a17;stroke-width:1.77165341" />
      <path
         inkscape:export-ydpi="250"
         inkscape:export-xdpi="250"
         inkscape:export-filename="/home/uciel/lab/Doctorado/Tesis/figuras_varias/procesamiento/spanish/mecanismos.png"
         class="fil27 str47"
         d="m 298.67143,83.373837 c 6.15153,4.49397 5.47937,18.032243 -1.3539,22.974803 -0.004,2.06043 -0.007,3.5961 -0.009,4.20661"
         id="path6088"
         inkscape:connector-curvature="0"
         style="fill:none;stroke:#1f1a17;stroke-width:1.77165341" />
      <path
         inkscape:export-ydpi="250"
         inkscape:export-xdpi="250"
         inkscape:export-filename="/home/uciel/lab/Doctorado/Tesis/figuras_varias/procesamiento/spanish/mecanismos.png"
         class="fil11"
         d="m 283.94438,111.11793 c -0.0294,0.085 -0.0478,0.19843 -0.0663,0.31535 l -0.0117,0.0744 -0.045,0.28347 -0.18886,0.20551 c -1.47154,1.61504 -0.91382,2.86937 -0.19488,4.48547 l 0,0 c 0.16582,0.37418 0.34086,0.76607 0.47374,1.09524 l 0.067,0.35433 0.002,0.60272 -0.0223,10.85917 -10e-4,0.61016 -7e-4,0.30118 -0.17008,0.24449 c -1.49209,2.12952 -1.00028,3.53019 -0.2491,5.66645 0.11126,0.31536 0.22784,0.64772 0.35575,1.03075 l 0.0485,0.30118 -10e-4,0.64311 -0.0847,41.25083 -10e-4,0.62114 -3.6e-4,0.33661 -0.20799,0.25512 c -0.86563,1.07043 -1.29968,1.92366 -1.30075,2.7372 -10e-4,0.83126 0.43477,1.74473 1.30926,2.92217 l 0.18637,0.25157 -7e-4,0.31182 0,0.0709 -2.05867,0 c -0.8883,-1.29827 -1.33299,-2.41795 -1.33051,-3.55925 0.002,-1.21925 0.50599,-2.3602 1.50981,-3.66236 l 3.5e-4,-0.29055 0.0847,-41.25083 10e-4,-0.48933 c -0.0967,-0.28701 -0.20126,-0.58039 -0.30012,-0.86138 -0.91772,-2.61 -1.52681,-4.3448 0.31642,-7.12381 l 7.1e-4,-0.3189 0.0223,-10.85917 -10e-4,-0.41315 c -0.13854,-0.33308 -0.25972,-0.60626 -0.3763,-0.86918 l -10e-4,7.1e-4 c -0.97619,-2.19331 -1.73835,-3.90827 0.33484,-6.32409 0.0245,-0.13111 0.056,-0.2693 0.11161,-0.43016 l 1.79079,0.61724 z"
         id="path6092"
         inkscape:connector-curvature="0"
         style="fill:#1f1a17;fill-rule:nonzero" />
      <path
         inkscape:export-ydpi="250"
         inkscape:export-xdpi="250"
         inkscape:export-filename="/home/uciel/lab/Doctorado/Tesis/figuras_varias/procesamiento/spanish/mecanismos.png"
         class="fil11"
         d="m 297.42135,110.48014 0.002,0 3.6e-4,0 c 0.0216,0.18779 0.045,0.38196 0.0783,0.56055 1.8489,1.71602 1.17496,3.52771 0.45922,5.45315 -0.21437,0.57543 -0.43229,1.16468 -0.5517,1.73799 l -0.001,0.48401 -0.0223,11.0374 10e-4,0.27638 0.003,0 c 0.12437,0.16654 0.23669,0.33662 0.33626,0.50457 0.10701,0.0921 0.20374,0.18425 0.29161,0.27638 l 0.003,0 c 0.13465,0.14173 0.25654,0.29764 0.36567,0.45921 l 0.11906,0.25158 0.004,0 0.004,0 c 0.095,0.31535 0.17008,0.63248 0.22465,0.9496 0.0528,0.30827 0.0865,0.62575 0.0996,0.94854 0.0656,1.58528 -0.39756,3.07914 -1.37197,4.28634 l -3.6e-4,3.6e-4 3.6e-4,0 c -0.012,0.0354 -0.0245,0.0709 -0.0344,0.10984 -0.0585,0.21614 -0.0819,0.47303 -0.0574,0.74728 l 0.004,0.11339 c -0.005,0.18779 -0.009,0.35433 -0.01,0.50492 l -0.003,0.50492 -0.084,40.79374 -3.5e-4,0.2622 c 1.04704,1.40245 1.57145,2.50973 1.59378,3.6528 0.0163,0.84083 -0.23599,1.63027 -0.74941,2.49697 l -2.295,0 c 0.77598,-1.0102 1.16397,-1.75925 1.15015,-2.45977 -0.0142,-0.74622 -0.4748,-1.59484 -1.39783,-2.7907 l -0.19701,-0.25512 3.6e-4,-0.32244 10e-4,-0.58252 0.0836,-40.79764 0,0 0.003,-0.50846 0,0 c 0.002,-0.17008 0.006,-0.33307 0.01,-0.48615 -0.0383,-0.49429 0.006,-0.95598 0.11303,-1.35318 0.0227,-0.085 0.0503,-0.17008 0.0783,-0.25158 l 0.004,0 c 0.0312,-0.085 0.0641,-0.16653 0.0974,-0.24094 l 0.004,0 0.008,0 0.13394,-0.2126 c 0.7246,-0.855 1.07008,-1.93925 1.02153,-3.1004 -0.009,-0.21968 -0.0351,-0.45637 -0.0776,-0.7037 -0.0329,-0.19488 -0.0776,-0.39189 -0.13322,-0.59137 -0.0273,-0.0354 -0.0574,-0.0673 -0.0893,-0.10276 l -3.6e-4,0 c -0.074,-0.078 -0.15378,-0.15236 -0.2374,-0.21614 l -0.2491,-0.2941 c -0.0769,-0.14173 -0.17007,-0.287 -0.28098,-0.43759 l -7.1e-4,3.5e-4 -0.0808,-0.1063 -0.074,-0.0921 -10e-4,10e-4 -0.004,0 -0.19169,-0.23386 -0.0198,-0.31181 c -0.006,-0.0921 -0.009,-0.21614 -0.011,-0.35469 l 0,0 -10e-4,-0.30826 0.0223,-11.03741 10e-4,-0.59421 0.0149,-0.17716 c 0.14208,-0.73099 0.40181,-1.42902 0.65516,-2.11075 0.5035,-1.35532 0.97653,-2.62843 -0.13819,-3.54827 l -0.22571,-0.18779 -0.0829,-0.28347 c -0.12047,-0.41173 -0.16192,-0.76996 -0.20196,-1.12039 l 0,0 -0.002,-0.0354 1.88646,-0.20906 z"
         id="path6096"
         inkscape:connector-curvature="0"
         style="fill:#1f1a17;fill-rule:nonzero" />
      <line
         inkscape:export-ydpi="250"
         inkscape:export-xdpi="250"
         inkscape:export-filename="/home/uciel/lab/Doctorado/Tesis/figuras_varias/procesamiento/spanish/mecanismos.png"
         class="fil27 str47"
         x1="283.1918"
         y1="175.78317"
         x2="297.17404"
         y2="175.81863"
         id="line6098"
         style="fill:none;stroke:#1f1a17;stroke-width:1.77165341" />
      <line
         inkscape:export-ydpi="250"
         inkscape:export-xdpi="250"
         inkscape:export-filename="/home/uciel/lab/Doctorado/Tesis/figuras_varias/procesamiento/spanish/mecanismos.png"
         class="fil27 str47"
         x1="283.19992"
         y1="172.31082"
         x2="297.18216"
         y2="172.34622"
         id="line6100"
         style="fill:none;stroke:#1f1a17;stroke-width:1.77165341" />
      <line
         inkscape:export-ydpi="250"
         inkscape:export-xdpi="250"
         inkscape:export-filename="/home/uciel/lab/Doctorado/Tesis/figuras_varias/procesamiento/spanish/mecanismos.png"
         class="fil27 str47"
         x1="283.20773"
         y1="168.4487"
         x2="297.18997"
         y2="168.4487"
         id="line6102"
         style="fill:none;stroke:#1f1a17;stroke-width:1.77165341" />
      <line
         inkscape:export-ydpi="250"
         inkscape:export-xdpi="250"
         inkscape:export-filename="/home/uciel/lab/Doctorado/Tesis/figuras_varias/procesamiento/spanish/mecanismos.png"
         class="fil27 str47"
         x1="283.21585"
         y1="164.55118"
         x2="297.19809"
         y2="164.58658"
         id="line6104"
         style="fill:none;stroke:#1f1a17;stroke-width:1.77165341" />
      <line
         inkscape:export-ydpi="250"
         inkscape:export-xdpi="250"
         inkscape:export-filename="/home/uciel/lab/Doctorado/Tesis/figuras_varias/procesamiento/spanish/mecanismos.png"
         class="fil27 str47"
         x1="283.22366"
         y1="160.72409"
         x2="297.2059"
         y2="160.72409"
         id="line6106"
         style="fill:none;stroke:#1f1a17;stroke-width:1.77165341" />
      <line
         inkscape:export-ydpi="250"
         inkscape:export-xdpi="250"
         inkscape:export-filename="/home/uciel/lab/Doctorado/Tesis/figuras_varias/procesamiento/spanish/mecanismos.png"
         class="fil27 str47"
         x1="283.23184"
         y1="156.82657"
         x2="297.21408"
         y2="156.86203"
         id="line6108"
         style="fill:none;stroke:#1f1a17;stroke-width:1.77165341" />
      <line
         inkscape:export-ydpi="250"
         inkscape:export-xdpi="250"
         inkscape:export-filename="/home/uciel/lab/Doctorado/Tesis/figuras_varias/procesamiento/spanish/mecanismos.png"
         class="fil27 str47"
         x1="283.23959"
         y1="152.92899"
         x2="297.22189"
         y2="152.96451"
         id="line6110"
         style="fill:none;stroke:#1f1a17;stroke-width:1.77165341" />
      <line
         inkscape:export-ydpi="250"
         inkscape:export-xdpi="250"
         inkscape:export-filename="/home/uciel/lab/Doctorado/Tesis/figuras_varias/procesamiento/spanish/mecanismos.png"
         class="fil27 str47"
         x1="283.24777"
         y1="149.06693"
         x2="297.23001"
         y2="149.06693"
         id="line6112"
         style="fill:none;stroke:#1f1a17;stroke-width:1.77165341" />
      <line
         inkscape:export-ydpi="250"
         inkscape:export-xdpi="250"
         inkscape:export-filename="/home/uciel/lab/Doctorado/Tesis/figuras_varias/procesamiento/spanish/mecanismos.png"
         class="fil27 str47"
         x1="283.25552"
         y1="145.16898"
         x2="297.23776"
         y2="145.20438"
         id="line6114"
         style="fill:none;stroke:#1f1a17;stroke-width:1.77165341" />
      <line
         inkscape:export-ydpi="250"
         inkscape:export-xdpi="250"
         inkscape:export-filename="/home/uciel/lab/Doctorado/Tesis/figuras_varias/procesamiento/spanish/mecanismos.png"
         class="fil27 str47"
         x1="283.26334"
         y1="141.34232"
         x2="297.24557"
         y2="141.34232"
         id="line6116"
         style="fill:none;stroke:#1f1a17;stroke-width:1.77165341" />
      <path
         inkscape:export-ydpi="250"
         inkscape:export-xdpi="250"
         inkscape:export-filename="/home/uciel/lab/Doctorado/Tesis/figuras_varias/procesamiento/spanish/mecanismos.png"
         class="fil27 str47"
         d="m 283.27151,137.4447 c 0,0 5.77842,0 9.90566,0.0354 0.34335,7.1e-4 0.67678,3.6e-4 0.99567,0 0.30402,0 0.65268,0.0354 1.018,0.0354 0.3646,0.002 0.74586,0 1.11472,-0.0354 0.36921,0 0.72673,-0.039 1.04421,-0.0744"
         id="path6118"
         inkscape:connector-curvature="0"
         style="fill:none;stroke:#1f1a17;stroke-width:1.77165341" />
      <line
         inkscape:export-ydpi="250"
         inkscape:export-xdpi="250"
         inkscape:export-filename="/home/uciel/lab/Doctorado/Tesis/figuras_varias/procesamiento/spanish/mecanismos.png"
         class="fil27 str47"
         x1="283.28745"
         y1="129.68491"
         x2="297.26968"
         y2="129.68491"
         id="line6120"
         style="fill:none;stroke:#1f1a17;stroke-width:1.77165341" />
      <line
         inkscape:export-ydpi="250"
         inkscape:export-xdpi="250"
         inkscape:export-filename="/home/uciel/lab/Doctorado/Tesis/figuras_varias/procesamiento/spanish/mecanismos.png"
         class="fil27 str47"
         x1="283.29526"
         y1="125.82266"
         x2="297.2775"
         y2="125.85806"
         id="line6122"
         style="fill:none;stroke:#1f1a17;stroke-width:1.77165341" />
      <line
         inkscape:export-ydpi="250"
         inkscape:export-xdpi="250"
         inkscape:export-filename="/home/uciel/lab/Doctorado/Tesis/figuras_varias/procesamiento/spanish/mecanismos.png"
         class="fil27 str47"
         x1="283.30307"
         y1="121.96054"
         x2="297.28531"
         y2="121.99576"
         id="line6124"
         style="fill:none;stroke:#1f1a17;stroke-width:1.77165341" />
      <line
         inkscape:export-ydpi="250"
         inkscape:export-xdpi="250"
         inkscape:export-filename="/home/uciel/lab/Doctorado/Tesis/figuras_varias/procesamiento/spanish/mecanismos.png"
         class="fil27 str47"
         x1="283.31119"
         y1="118.06277"
         x2="297.29343"
         y2="118.09824"
         id="line6126"
         style="fill:none;stroke:#1f1a17;stroke-width:1.77165341" />
      <line
         inkscape:export-ydpi="250"
         inkscape:export-xdpi="250"
         inkscape:export-filename="/home/uciel/lab/Doctorado/Tesis/figuras_varias/procesamiento/spanish/mecanismos.png"
         class="fil27 str47"
         x1="283.32712"
         y1="110.33841"
         x2="297.30936"
         y2="110.37381"
         id="line6128"
         style="fill:none;stroke:#1f1a17;stroke-width:1.77165341" />
      <line
         inkscape:export-ydpi="250"
         inkscape:export-xdpi="250"
         inkscape:export-filename="/home/uciel/lab/Doctorado/Tesis/figuras_varias/procesamiento/spanish/mecanismos.png"
         class="fil27 str47"
         x1="283.57236"
         y1="106.44083"
         x2="297.55453"
         y2="106.47629"
         id="line6130"
         style="fill:none;stroke:#1f1a17;stroke-width:1.77165341" />
      <path
         inkscape:export-ydpi="250"
         inkscape:export-xdpi="250"
         inkscape:export-filename="/home/uciel/lab/Doctorado/Tesis/figuras_varias/procesamiento/spanish/mecanismos.png"
         class="fil27 str47"
         d="m 281.95056,85.499817 c 6.36803,-5.75504 13.26437,-4.18075 17.74098,-1.19657"
         id="path6132"
         inkscape:connector-curvature="0"
         style="fill:none;stroke:#1f1a17;stroke-width:1.77165341" />
      <path
         inkscape:export-ydpi="250"
         inkscape:export-xdpi="250"
         inkscape:export-filename="/home/uciel/lab/Doctorado/Tesis/figuras_varias/procesamiento/spanish/mecanismos.png"
         class="fil27"
         d="m 283.32607,188.92895 c -0.0666,0.19134 -0.0893,0.3685 -0.1187,0.5485 -2.21953,2.43603 -0.90673,4.08331 0.10063,6.57638 0.001,0.19843 0.001,0.40075 0.002,0.60236 -0.007,3.35056 -0.0145,7.00654 -0.0227,10.85953 -3.5e-4,0.20197 -7e-4,0.40606 -0.001,0.61016 -2.00905,2.86795 -1.02543,4.51453 -0.0156,7.54016 -3.5e-4,0.21259 -7.1e-4,0.42838 -10e-4,0.64311 -0.0287,13.80755 -0.0595,28.95271 -0.085,41.25117 -3.6e-4,0.20906 -7.1e-4,0.41386 -0.001,0.62115 -2.008,2.4835 -2.01119,4.12795 -0.0138,6.81838 -7.1e-4,0.17717 -10e-4,0.35079 -10e-4,0.52795 -0.004,2.04378 -0.007,3.43489 -0.0135,6.73689 -1.92118,1.88611 -1.56507,4.10315 -0.12614,6.57248"
         id="path6134"
         inkscape:connector-curvature="0"
         style="fill:none" />
      <path
         inkscape:export-ydpi="250"
         inkscape:export-xdpi="250"
         inkscape:export-filename="/home/uciel/lab/Doctorado/Tesis/figuras_varias/procesamiento/spanish/mecanismos.png"
         class="fil11"
         d="m 284.22147,189.24785 c -0.0294,0.085 -0.0482,0.19842 -0.0663,0.31535 l -0.0117,0.0744 -0.045,0.28347 -0.18921,0.20551 c -1.47154,1.61504 -0.91346,2.86901 -0.19453,4.48512 l 0,0 c 0.16583,0.37382 0.34087,0.76606 0.47339,1.09488 l 0.067,0.35433 0.002,0.60236 -0.0227,10.85953 -10e-4,0.61016 -3.6e-4,0.29763 -0.17043,0.24449 c -1.49173,2.12988 -0.99992,3.52984 -0.24874,5.66681 0.11091,0.31536 0.22783,0.64736 0.35575,1.0304 l 0.0482,0.30118 -0.001,0.64311 -0.085,41.25118 -0.001,0.62114 -3.5e-4,0.33661 -0.20764,0.25512 c -0.86563,1.07043 -1.29969,1.92366 -1.30075,2.7372 -0.002,0.83197 0.43476,1.74508 1.30925,2.92252 l 0.18638,0.25158 -10e-4,0.31535 -0.001,0.52796 -0.0135,6.73689 -0.001,0.39933 -0.28134,0.27637 c -0.78484,0.77032 -1.08602,1.59874 -1.03571,2.47855 0.0563,0.97582 0.52122,2.06433 1.24122,3.23752 l 0.11091,0.18071 -2.19225,0 c -0.60732,-1.13599 -0.99212,-2.23902 -1.05413,-3.31335 -0.0748,-1.30642 0.31216,-2.52567 1.31882,-3.64146 l 0.0127,-6.35456 3.6e-4,-0.21969 c -0.99744,-1.39819 -1.4967,-2.58342 -1.49386,-3.79382 0.002,-1.2189 0.50598,-2.36126 1.50945,-3.66307 l 3.5e-4,-0.29055 0.085,-41.25118 7.1e-4,-0.4911 c -0.0967,-0.28701 -0.20126,-0.57827 -0.30012,-0.85961 -0.91736,-2.61 -1.52752,-4.34551 0.31642,-7.12488 l 7.1e-4,-0.3189 0.0227,-10.85952 -0.002,-0.41422 c -0.13783,-0.33307 -0.25972,-0.60555 -0.37594,-0.86811 l -0.002,10e-4 c -0.97583,-2.19331 -1.73799,-3.90933 0.33449,-6.32481 0.0244,-0.1311 0.0567,-0.26929 0.11232,-0.42944 l 1.79079,0.61688 z"
         id="path6136"
         inkscape:connector-curvature="0"
         style="fill:#1f1a17;fill-rule:nonzero" />
      <path
         inkscape:export-ydpi="250"
         inkscape:export-xdpi="250"
         inkscape:export-filename="/home/uciel/lab/Doctorado/Tesis/figuras_varias/procesamiento/spanish/mecanismos.png"
         class="fil27"
         d="m 297.30938,189.35415 c 0.0369,0.31181 0.0733,0.62929 0.17114,0.95244 2.25886,1.80319 0.28063,4.0259 -0.18638,6.35279 -7.1e-4,0.19134 -0.001,0.38233 -0.001,0.57473 -0.007,3.28854 -0.0145,6.88323 -0.0227,10.67386 -3.6e-4,0.19842 -7.1e-4,0.39933 0.0124,0.59988 0.21968,0.25512 0.3972,0.51059 0.53787,0.76039 0.2537,0.19134 0.45355,0.39791 0.61051,0.62504 0.6091,1.9389 0.27603,3.84697 -0.95314,5.24976 -0.17717,0.3639 -0.2654,0.85323 -0.21508,1.39394 -0.01,0.3437 -0.0124,0.67287 -0.0131,0.99815 -0.028,13.35791 -0.0588,27.85712 -0.0836,39.45472 -3.5e-4,0.1878 -7e-4,0.3763 -10e-4,0.56339 2.10118,2.63374 2.09835,3.90649 0.15697,6.31027 -0.0429,0.18071 -0.0751,0.35433 -0.1715,0.54851 -0.004,1.68803 -0.007,3.2524 -0.0128,6.03106 1.3709,2.71382 1.6813,3.25098 0.0613,6.10087 -7.1e-4,0.30118 -0.0163,1.26354 -0.0347,2.30492"
         id="path6138"
         inkscape:connector-curvature="0"
         style="fill:none" />
      <path
         inkscape:export-ydpi="250"
         inkscape:export-xdpi="250"
         inkscape:export-filename="/home/uciel/lab/Doctorado/Tesis/figuras_varias/procesamiento/spanish/mecanismos.png"
         class="fil11"
         d="m 298.25261,189.24785 0.002,0 3.5e-4,0 c 0.0206,0.17716 0.0425,0.35752 0.073,0.52334 1.86343,1.69122 1.18311,3.4813 0.46028,5.38158 -0.21083,0.55559 -0.42697,1.12358 -0.54709,1.69264 l -10e-4,0.46134 -0.0223,10.79007 7.1e-4,0.24449 c 0.0496,0.0638 0.0953,0.1311 0.13925,0.19134 0.0659,0.0957 0.12969,0.19134 0.19028,0.29055 0.10346,0.0886 0.20055,0.18071 0.29445,0.27638 0.13748,0.14173 0.26079,0.29409 0.36921,0.45425 l 0.12614,0.25866 0.004,0 c 0.0975,0.31536 0.17398,0.63107 0.22819,0.93898 0.0532,0.30118 0.0861,0.61157 0.0999,0.93153 0.0659,1.55977 -0.39827,3.02847 -1.37693,4.21583 -0.0131,0.0354 -0.0252,0.0709 -0.0333,0.10276 -0.0563,0.20197 -0.0779,0.44681 -0.0535,0.71185 l 0.004,0.11338 c -0.005,0.18426 -0.008,0.34725 -0.01,0.49323 l -0.003,0.49252 -0.0836,39.87921 -3.5e-4,0.23386 c 1.04633,1.37374 1.57074,2.46366 1.59378,3.59398 0.0234,1.17106 -0.48615,2.23511 -1.50768,3.5472 -0.0255,0.1063 -0.0556,0.2126 -0.10169,0.33307 l -0.012,5.65831 c 1.44,2.88142 1.75429,3.58405 0.0602,6.65362 -0.005,0.4415 -0.0188,1.23272 -0.0337,2.07496 l -1.8946,0 c 0.0184,-1.05909 0.0344,-2.0413 0.0347,-2.32937 l 10e-4,-0.25512 0.12154,-0.21614 c 1.34752,-2.39776 1.10587,-2.88213 -0.0315,-5.15799 l -0.0524,-0.1063 -0.0999,-0.43193 0.0128,-6.09484 0.0967,-0.42449 c 0.0308,-0.0638 0.0549,-0.16654 0.0783,-0.26929 l 0.0184,-0.0815 0.18603,-0.38338 c 0.82771,-1.03607 1.24334,-1.78902 1.22952,-2.48244 -0.0145,-0.71433 -0.47232,-1.53603 -1.39039,-2.69965 l -0.20445,-0.25866 3.6e-4,-0.33662 10e-4,-0.56692 0.0836,-39.88311 0,0 0.003,-0.49607 0,0 c 10e-4,-0.16653 0.006,-0.32598 0.01,-0.47551 -0.0386,-0.48437 0.007,-0.94074 0.11658,-1.3376 0.0248,-0.0921 0.0517,-0.17362 0.0783,-0.24803 l 0.004,0 c 0.0337,-0.0921 0.0666,-0.17362 0.0974,-0.2374 l 0,0 0.008,0 0.14492,-0.21968 c 0.71681,-0.8263 1.05803,-1.87193 1.01055,-2.99126 -0.009,-0.2126 -0.0351,-0.44044 -0.0776,-0.68315 -0.0333,-0.1878 -0.0755,-0.37666 -0.12791,-0.56268 -0.0269,-0.0354 -0.0567,-0.0638 -0.0875,-0.0957 -0.0627,-0.0638 -0.14102,-0.13464 -0.23386,-0.20551 l -0.25653,-0.30118 c -0.0493,-0.0886 -0.11162,-0.1878 -0.18744,-0.29764 -0.0744,-0.1063 -0.15626,-0.2126 -0.24307,-0.31535 l -0.20516,-0.24449 -0.0209,-0.32244 c -0.006,-0.0886 -0.009,-0.2126 -0.0113,-0.35079 l 0,0 -0.001,-0.30118 0.0227,-10.79008 0.001,-0.58181 0.0149,-0.1878 c 0.1396,-0.70441 0.40216,-1.39429 0.65834,-2.06822 0.49678,-1.30642 0.96308,-2.53311 -0.13039,-3.41433 l -0.22925,-0.18426 -0.0865,-0.287 c -0.12437,-0.41386 -0.16582,-0.76465 -0.20586,-1.10835 l 0,0 -0.002,-0.0354 1.88646,-0.21615 z"
         id="path6140"
         inkscape:connector-curvature="0"
         style="fill:#1f1a17;fill-rule:nonzero" />
      <line
         inkscape:export-ydpi="250"
         inkscape:export-xdpi="250"
         inkscape:export-filename="/home/uciel/lab/Doctorado/Tesis/figuras_varias/procesamiento/spanish/mecanismos.png"
         class="fil27 str47"
         x1="283.1918"
         y1="190.06277"
         x2="297.17404"
         y2="190.0983"
         id="line6142"
         style="fill:none;stroke:#1f1a17;stroke-width:1.77165341" />
      <path
         inkscape:export-ydpi="250"
         inkscape:export-xdpi="250"
         inkscape:export-filename="/home/uciel/lab/Doctorado/Tesis/figuras_varias/procesamiento/spanish/mecanismos.png"
         class="fil27 str47"
         d="m 283.27151,186.48407 c 0,0 5.77842,0 9.90566,0.0354 0.34335,7.1e-4 0.67678,7.1e-4 0.99567,0 0.30402,0 0.65268,0.0354 1.018,0.0354 0.3646,0.002 0.74586,0 1.11472,-0.0354 0.36921,0 0.72673,-0.039 1.04421,-0.0744"
         id="path6144"
         inkscape:connector-curvature="0"
         style="fill:none;stroke:#1f1a17;stroke-width:1.77165341" />
      <line
         inkscape:export-ydpi="250"
         inkscape:export-xdpi="250"
         inkscape:export-filename="/home/uciel/lab/Doctorado/Tesis/figuras_varias/procesamiento/spanish/mecanismos.png"
         class="fil27 str47"
         x1="283.26334"
         y1="179.29099"
         x2="297.24557"
         y2="179.32645"
         id="line6146"
         style="fill:none;stroke:#1f1a17;stroke-width:1.77165341" />
      <polyline
         inkscape:export-ydpi="250"
         inkscape:export-xdpi="250"
         inkscape:export-filename="/home/uciel/lab/Doctorado/Tesis/figuras_varias/procesamiento/spanish/mecanismos.png"
         class="fil3 str48"
         points="76.8443,1024.33 76.3792,1025.27 76.4007,1037.39 76.9323,1038.37 76.4203,1039.43 "
         id="polyline6148"
         style="color:#000000;fill:none;stroke:#8e2800;stroke-width:0.5;stroke-linecap:round;stroke-linejoin:round;stroke-miterlimit:4;stroke-opacity:1;stroke-dasharray:none;stroke-dashoffset:0;marker:none;visibility:visible;display:inline;overflow:visible;enable-background:accumulate"
         transform="matrix(3.5433069,0,0,3.5433069,25.746797,-3495.4016)" />
      <polyline
         inkscape:export-ydpi="250"
         inkscape:export-xdpi="250"
         inkscape:export-filename="/home/uciel/lab/Doctorado/Tesis/figuras_varias/procesamiento/spanish/mecanismos.png"
         class="fil3 str49"
         points="72.5672,1022.73 72.066,1024.09 72.681,1025.27 72.6098,1037.39 72.1958,1037.88 "
         id="polyline6150"
         style="color:#000000;fill:none;stroke:#91c9e8;stroke-width:0.5;stroke-linecap:round;stroke-linejoin:round;stroke-miterlimit:4;stroke-opacity:0.81568627;stroke-dasharray:none;stroke-dashoffset:0;marker:none;visibility:visible;display:inline;overflow:visible;enable-background:accumulate"
         transform="matrix(3.5433069,0,0,3.5433069,25.746797,-3495.4016)" />
      <line
         inkscape:export-ydpi="250"
         inkscape:export-xdpi="250"
         inkscape:export-filename="/home/uciel/lab/Doctorado/Tesis/figuras_varias/procesamiento/spanish/mecanismos.png"
         class="fil27 str47"
         x1="283.23959"
         y1="207.7793"
         x2="297.22189"
         y2="207.81476"
         id="line6152"
         style="fill:none;stroke:#1f1a17;stroke-width:1.77165341" />
      <line
         inkscape:export-ydpi="250"
         inkscape:export-xdpi="250"
         inkscape:export-filename="/home/uciel/lab/Doctorado/Tesis/figuras_varias/procesamiento/spanish/mecanismos.png"
         class="fil27 str47"
         x1="283.24777"
         y1="203.88174"
         x2="297.23001"
         y2="203.91727"
         id="line6154"
         style="fill:none;stroke:#1f1a17;stroke-width:1.77165341" />
      <line
         inkscape:export-ydpi="250"
         inkscape:export-xdpi="250"
         inkscape:export-filename="/home/uciel/lab/Doctorado/Tesis/figuras_varias/procesamiento/spanish/mecanismos.png"
         class="fil27 str47"
         x1="283.25552"
         y1="198.88559"
         x2="297.23776"
         y2="198.92104"
         id="line6156"
         style="fill:none;stroke:#1f1a17;stroke-width:1.77165341" />
      <line
         inkscape:export-ydpi="250"
         inkscape:export-xdpi="250"
         inkscape:export-filename="/home/uciel/lab/Doctorado/Tesis/figuras_varias/procesamiento/spanish/mecanismos.png"
         class="fil27 str47"
         x1="283.26334"
         y1="195.05898"
         x2="297.24557"
         y2="195.09445"
         id="line6158"
         style="fill:none;stroke:#1f1a17;stroke-width:1.77165341" />
      <line
         inkscape:export-ydpi="250"
         inkscape:export-xdpi="250"
         inkscape:export-filename="/home/uciel/lab/Doctorado/Tesis/figuras_varias/procesamiento/spanish/mecanismos.png"
         class="fil27 str47"
         x1="283.28568"
         y1="246.86206"
         x2="297.26791"
         y2="246.86206"
         id="line6160"
         style="fill:none;stroke:#1f1a17;stroke-width:1.77165341" />
      <line
         inkscape:export-ydpi="250"
         inkscape:export-xdpi="250"
         inkscape:export-filename="/home/uciel/lab/Doctorado/Tesis/figuras_varias/procesamiento/spanish/mecanismos.png"
         class="fil27 str47"
         x1="283.25626"
         y1="268.33429"
         x2="297.23849"
         y2="268.36975"
         id="line6162"
         style="fill:none;stroke:#1f1a17;stroke-width:1.77165341" />
      <line
         inkscape:export-ydpi="250"
         inkscape:export-xdpi="250"
         inkscape:export-filename="/home/uciel/lab/Doctorado/Tesis/figuras_varias/procesamiento/spanish/mecanismos.png"
         class="fil27 str47"
         x1="283.26407"
         y1="257.27917"
         x2="297.24631"
         y2="257.27917"
         id="line6164"
         style="fill:none;stroke:#1f1a17;stroke-width:1.77165341" />
      <line
         inkscape:export-ydpi="250"
         inkscape:export-xdpi="250"
         inkscape:export-filename="/home/uciel/lab/Doctorado/Tesis/figuras_varias/procesamiento/spanish/mecanismos.png"
         class="fil27 str47"
         x1="282.19009"
         y1="271.73615"
         x2="296.17233"
         y2="271.77161"
         id="line6166"
         style="fill:none;stroke:#1f1a17;stroke-width:1.77165341" />
      <path
         inkscape:export-ydpi="250"
         inkscape:export-xdpi="250"
         inkscape:export-filename="/home/uciel/lab/Doctorado/Tesis/figuras_varias/procesamiento/spanish/mecanismos.png"
         class="fil27 str47"
         d="m 297.08509,311.4565 c -0.0124,6.08138 4.89897,11.0126 10.97964,11.025"
         id="path6168"
         inkscape:connector-curvature="0"
         style="fill:none;stroke:#1f1a17;stroke-width:1.77165341" />
      <path
         inkscape:export-ydpi="250"
         inkscape:export-xdpi="250"
         inkscape:export-filename="/home/uciel/lab/Doctorado/Tesis/figuras_varias/procesamiento/spanish/mecanismos.png"
         class="fil27 str47"
         d="m 283.0582,311.27934 c -0.0124,6.02185 -4.89508,10.88504 -10.91764,10.87299"
         id="path6170"
         inkscape:connector-curvature="0"
         style="fill:none;stroke:#1f1a17;stroke-width:1.77165341" />
      <line
         inkscape:export-ydpi="250"
         inkscape:export-xdpi="250"
         inkscape:export-filename="/home/uciel/lab/Doctorado/Tesis/figuras_varias/procesamiento/spanish/mecanismos.png"
         class="fil27 str47"
         x1="283.26407"
         y1="257.70435"
         x2="297.24631"
         y2="257.73981"
         id="line6172"
         style="fill:none;stroke:#1f1a17;stroke-width:1.77165341" />
      <line
         inkscape:export-ydpi="250"
         inkscape:export-xdpi="250"
         inkscape:export-filename="/home/uciel/lab/Doctorado/Tesis/figuras_varias/procesamiento/spanish/mecanismos.png"
         class="fil27 str47"
         x1="283.29349"
         y1="243.10596"
         x2="297.27573"
         y2="243.10596"
         id="line6174"
         style="fill:none;stroke:#1f1a17;stroke-width:1.77165341" />
      <line
         inkscape:export-ydpi="250"
         inkscape:export-xdpi="250"
         inkscape:export-filename="/home/uciel/lab/Doctorado/Tesis/figuras_varias/procesamiento/spanish/mecanismos.png"
         class="fil27 str47"
         x1="282.95615"
         y1="279.07062"
         x2="296.93839"
         y2="279.10608"
         id="line6176"
         style="fill:none;stroke:#1f1a17;stroke-width:1.77165341" />
      <line
         inkscape:export-ydpi="250"
         inkscape:export-xdpi="250"
         inkscape:export-filename="/home/uciel/lab/Doctorado/Tesis/figuras_varias/procesamiento/spanish/mecanismos.png"
         class="fil27 str47"
         x1="282.50082"
         y1="308.62164"
         x2="296.48306"
         y2="308.6571"
         id="line6178"
         style="fill:none;stroke:#1f1a17;stroke-width:1.77165341" />
      <line
         inkscape:export-ydpi="250"
         inkscape:export-xdpi="250"
         inkscape:export-filename="/home/uciel/lab/Doctorado/Tesis/figuras_varias/procesamiento/spanish/mecanismos.png"
         class="fil27 str47"
         x1="282.509"
         y1="304.6532"
         x2="296.49124"
         y2="304.68866"
         id="line6180"
         style="fill:none;stroke:#1f1a17;stroke-width:1.77165341" />
      <path
         inkscape:export-ydpi="250"
         inkscape:export-xdpi="250"
         inkscape:export-filename="/home/uciel/lab/Doctorado/Tesis/figuras_varias/procesamiento/spanish/mecanismos.png"
         class="fil27"
         d="m 297.13186,278.57462 -0.003,0.6835 c 7.19611,2.87433 7.31764,18.29303 -0.0439,21.32149 -0.0103,5.12788 -0.0223,11.01083 -0.0223,11.01083"
         id="path6182"
         inkscape:connector-curvature="0"
         style="fill:none" />
      <path
         inkscape:export-ydpi="250"
         inkscape:export-xdpi="250"
         inkscape:export-filename="/home/uciel/lab/Doctorado/Tesis/figuras_varias/procesamiento/spanish/mecanismos.png"
         class="fil11"
         d="m 298.07721,278.57462 0,0.0744 c 1.94209,0.98575 3.36508,2.79355 4.26685,4.98508 0.76677,1.86414 1.15866,4.01953 1.16894,6.17457 0.0106,2.1522 -0.35894,4.31787 -1.11366,6.20716 -0.90213,2.25922 -2.35417,4.13611 -4.36819,5.17075 l -0.0213,10.40492 -1.89425,0 0.0227,-11.01082 10e-4,-0.63603 0.58536,-0.24094 c 1.80389,-0.74162 3.10854,-2.36941 3.91393,-4.38626 0.66402,-1.66217 0.9893,-3.58264 0.97973,-5.50134 -0.009,-1.91516 -0.35362,-3.82216 -1.02792,-5.46165 -0.80681,-1.96016 -2.08275,-3.52488 -3.81118,-4.21512 l -0.59881,-0.24095 0.001,-0.64063 10e-4,-0.6835 1.89389,0 z"
         id="path6184"
         inkscape:connector-curvature="0"
         style="fill:#1f1a17;fill-rule:nonzero" />
      <line
         inkscape:export-ydpi="250"
         inkscape:export-xdpi="250"
         inkscape:export-filename="/home/uciel/lab/Doctorado/Tesis/figuras_varias/procesamiento/spanish/mecanismos.png"
         class="fil27 str47"
         x1="282.51682"
         y1="300.862"
         x2="296.49899"
         y2="300.89752"
         id="line6186"
         style="fill:none;stroke:#1f1a17;stroke-width:1.77165341" />
      <line
         inkscape:export-ydpi="250"
         inkscape:export-xdpi="250"
         inkscape:export-filename="/home/uciel/lab/Doctorado/Tesis/figuras_varias/procesamiento/spanish/mecanismos.png"
         class="fil27 str47"
         x1="283.24814"
         y1="265.11017"
         x2="297.23038"
         y2="265.14563"
         id="line6188"
         style="fill:none;stroke:#1f1a17;stroke-width:1.77165341" />
      <line
         inkscape:export-ydpi="250"
         inkscape:export-xdpi="250"
         inkscape:export-filename="/home/uciel/lab/Doctorado/Tesis/figuras_varias/procesamiento/spanish/mecanismos.png"
         class="fil27 str47"
         x1="283.85013"
         y1="253.16925"
         x2="297.83237"
         y2="253.20428"
         id="line6190"
         style="fill:none;stroke:#1f1a17;stroke-width:1.77165341" />
      <path
         inkscape:export-ydpi="250"
         inkscape:export-xdpi="250"
         inkscape:export-filename="/home/uciel/lab/Doctorado/Tesis/figuras_varias/procesamiento/spanish/mecanismos.png"
         class="fil27"
         d="m 283.11525,278.57462 -0.003,0.72531 c -7.20744,2.84528 -7.3924,18.26291 -0.0436,21.32149 -0.0103,5.12788 -0.0223,11.01083 -0.0223,11.01083"
         id="path6192"
         inkscape:connector-curvature="0"
         style="fill:none" />
      <path
         inkscape:export-ydpi="250"
         inkscape:export-xdpi="250"
         inkscape:export-filename="/home/uciel/lab/Doctorado/Tesis/figuras_varias/procesamiento/spanish/mecanismos.png"
         class="fil11"
         d="m 284.06095,278.57462 -0.002,0.72531 -10e-4,0.64701 -0.60059,0.2374 c -1.73055,0.68279 -3.01217,2.24114 -3.82606,4.1974 -0.68245,1.63949 -1.035,3.54437 -1.05201,5.45776 -0.0177,1.91515 0.30082,3.83633 0.95953,5.50523 0.79689,2.01898 2.09444,3.65173 3.89338,4.40008 l 0.58465,0.24449 -10e-4,0.6339 -0.0223,11.01082 -1.89426,0 0.0213,-10.40846 c -2.01047,-1.04351 -3.45614,-2.92536 -4.34905,-5.18847 -0.74516,-1.88858 -1.10551,-4.05566 -1.08602,-6.21141 0.0191,-2.15788 0.41917,-4.3115 1.19267,-6.17067 0.91099,-2.1887 2.34248,-3.99118 4.28847,-4.96914 l 3.5e-4,-0.10984 1.89425,0 z"
         id="path6194"
         inkscape:connector-curvature="0"
         style="fill:#1f1a17;fill-rule:nonzero" />
      <line
         inkscape:export-ydpi="250"
         inkscape:export-xdpi="250"
         inkscape:export-filename="/home/uciel/lab/Doctorado/Tesis/figuras_varias/procesamiento/spanish/mecanismos.png"
         class="fil27 str47"
         x1="282.49234"
         y1="312.73199"
         x2="296.47458"
         y2="312.76746"
         id="line6196"
         style="fill:none;stroke:#1f1a17;stroke-width:1.77165341" />
      <line
         inkscape:export-ydpi="250"
         inkscape:export-xdpi="250"
         inkscape:export-filename="/home/uciel/lab/Doctorado/Tesis/figuras_varias/procesamiento/spanish/mecanismos.png"
         class="fil27 str47"
         x1="283.2977"
         y1="271.73615"
         x2="297.27994"
         y2="271.77161"
         id="line6198"
         style="fill:none;stroke:#1f1a17;stroke-width:1.77165341" />
      <line
         inkscape:export-ydpi="250"
         inkscape:export-xdpi="250"
         inkscape:export-filename="/home/uciel/lab/Doctorado/Tesis/figuras_varias/procesamiento/spanish/mecanismos.png"
         class="fil27 str47"
         x1="283.85013"
         y1="249.98022"
         x2="297.83237"
         y2="250.01569"
         id="line6200"
         style="fill:none;stroke:#1f1a17;stroke-width:1.77165341" />
      <line
         inkscape:export-ydpi="250"
         inkscape:export-xdpi="250"
         inkscape:export-filename="/home/uciel/lab/Doctorado/Tesis/figuras_varias/procesamiento/spanish/mecanismos.png"
         class="fil27 str47"
         x1="283.28568"
         y1="229.25195"
         x2="297.26791"
         y2="229.28699"
         id="line6202"
         style="fill:none;stroke:#1f1a17;stroke-width:1.77165341" />
      <line
         inkscape:export-ydpi="250"
         inkscape:export-xdpi="250"
         inkscape:export-filename="/home/uciel/lab/Doctorado/Tesis/figuras_varias/procesamiento/spanish/mecanismos.png"
         class="fil27 str47"
         x1="283.26407"
         y1="239.66907"
         x2="297.24631"
         y2="239.70453"
         id="line6204"
         style="fill:none;stroke:#1f1a17;stroke-width:1.77165341" />
      <line
         inkscape:export-ydpi="250"
         inkscape:export-xdpi="250"
         inkscape:export-filename="/home/uciel/lab/Doctorado/Tesis/figuras_varias/procesamiento/spanish/mecanismos.png"
         class="fil27 str47"
         x1="283.29349"
         y1="225.49585"
         x2="297.27573"
         y2="225.53131"
         id="line6206"
         style="fill:none;stroke:#1f1a17;stroke-width:1.77165341" />
      <line
         inkscape:export-ydpi="250"
         inkscape:export-xdpi="250"
         inkscape:export-filename="/home/uciel/lab/Doctorado/Tesis/figuras_varias/procesamiento/spanish/mecanismos.png"
         class="fil27 str47"
         x1="283.30093"
         y1="221.84613"
         x2="297.28317"
         y2="221.84613"
         id="line6208"
         style="fill:none;stroke:#1f1a17;stroke-width:1.77165341" />
      <line
         inkscape:export-ydpi="250"
         inkscape:export-xdpi="250"
         inkscape:export-filename="/home/uciel/lab/Doctorado/Tesis/figuras_varias/procesamiento/spanish/mecanismos.png"
         class="fil27 str47"
         x1="283.85013"
         y1="235.55872"
         x2="297.83237"
         y2="235.59418"
         id="line6210"
         style="fill:none;stroke:#1f1a17;stroke-width:1.77165341" />
      <line
         inkscape:export-ydpi="250"
         inkscape:export-xdpi="250"
         inkscape:export-filename="/home/uciel/lab/Doctorado/Tesis/figuras_varias/procesamiento/spanish/mecanismos.png"
         class="fil27 str47"
         x1="283.85013"
         y1="232.40509"
         x2="297.83237"
         y2="232.40509"
         id="line6212"
         style="fill:none;stroke:#1f1a17;stroke-width:1.77165341" />
      <line
         inkscape:export-ydpi="250"
         inkscape:export-xdpi="250"
         inkscape:export-filename="/home/uciel/lab/Doctorado/Tesis/figuras_varias/procesamiento/spanish/mecanismos.png"
         class="fil27 str47"
         x1="283.29349"
         y1="218.58655"
         x2="297.27573"
         y2="218.62201"
         id="line6214"
         style="fill:none;stroke:#1f1a17;stroke-width:1.77165341" />
      <line
         inkscape:export-ydpi="250"
         inkscape:export-xdpi="250"
         inkscape:export-filename="/home/uciel/lab/Doctorado/Tesis/figuras_varias/procesamiento/spanish/mecanismos.png"
         class="fil27 str47"
         x1="283.24777"
         y1="215.78723"
         x2="297.23001"
         y2="215.82263"
         id="line6216"
         style="fill:none;stroke:#1f1a17;stroke-width:1.77165341" />
      <line
         inkscape:export-ydpi="250"
         inkscape:export-xdpi="250"
         inkscape:export-filename="/home/uciel/lab/Doctorado/Tesis/figuras_varias/procesamiento/spanish/mecanismos.png"
         class="fil27 str47"
         x1="282.7067"
         y1="189.74405"
         x2="282.7067"
         y2="186.34213"
         id="line6388"
         style="fill:none;stroke:#1f1a17;stroke-width:1.77165341" />
      <line
         inkscape:export-ydpi="250"
         inkscape:export-xdpi="250"
         inkscape:export-filename="/home/uciel/lab/Doctorado/Tesis/figuras_varias/procesamiento/spanish/mecanismos.png"
         class="fil27 str47"
         x1="297.01846"
         y1="189.74405"
         x2="297.01846"
         y2="186.34213"
         id="line6390"
         style="fill:none;stroke:#1f1a17;stroke-width:1.77165341" />
    </g>
    <text
       xml:space="preserve"
       style="font-size:9px;font-style:normal;font-weight:normal;line-height:125%;letter-spacing:0px;word-spacing:0px;fill:#000000;fill-opacity:1;stroke:none;font-family:Sans"
       x="219.16209"
       y="256.21613"
       id="text272393-7-8-7"
       sodipodi:linespacing="125%"
       inkscape:export-filename="/home/uciel/lab/Doctorado/Tesis/figuras_varias/procesamiento/spanish/mecanismos.png"
       inkscape:export-xdpi="250"
       inkscape:export-ydpi="250"><tspan
         sodipodi:role="line"
         x="219.16209"
         y="256.21613"
         style="font-size:10px;text-align:center;text-anchor:middle;fill:#000000;fill-opacity:1"
         id="tspan274595-9-2-7">tallo inferior</tspan><tspan
         sodipodi:role="line"
         x="219.16209"
         y="268.71613"
         style="font-size:10px;text-align:center;text-anchor:middle;fill:#000000;fill-opacity:1"
         id="tspan275245-5">(~15nt)</tspan></text>
    <text
       xml:space="preserve"
       style="font-size:9px;font-style:normal;font-weight:normal;line-height:125%;letter-spacing:0px;word-spacing:0px;fill:#000000;fill-opacity:1;stroke:none;font-family:Sans"
       x="218.41805"
       y="152.41519"
       id="text272393-7-8-7-8"
       sodipodi:linespacing="125%"
       inkscape:export-filename="/home/uciel/lab/Doctorado/Tesis/figuras_varias/procesamiento/spanish/mecanismos.png"
       inkscape:export-xdpi="250"
       inkscape:export-ydpi="250"><tspan
         sodipodi:role="line"
         x="220.00984"
         y="152.41519"
         style="font-size:10px;text-align:center;text-anchor:middle;fill:#000000;fill-opacity:1"
         id="tspan275458">Dúplex </tspan><tspan
         sodipodi:role="line"
         x="218.41805"
         y="164.91519"
         style="font-size:10px;text-align:center;text-anchor:middle;fill:#000000;fill-opacity:1"
         id="tspan5151">miARN/miARN*</tspan></text>
    <path
       style="fill:none;stroke:#468966;stroke-width:4;stroke-linecap:butt;stroke-linejoin:miter;stroke-miterlimit:4;stroke-opacity:1;stroke-dasharray:none"
       d="m 262.14286,128.25504 0,53.75"
       id="path4325"
       inkscape:connector-curvature="0" />
    <path
       style="opacity:0.5;fill:none;stroke:#468966;stroke-width:2;stroke-linecap:butt;stroke-linejoin:miter;stroke-miterlimit:4;stroke-opacity:1;stroke-dasharray:none"
       d="m 262.14286,183.31532 0,54.22543"
       id="path4329"
       inkscape:connector-curvature="0" />
    <path
       style="fill:none;stroke:#000000;stroke-width:1;stroke-linecap:butt;stroke-linejoin:miter;stroke-miterlimit:4;stroke-opacity:1;stroke-dasharray:1, 2;stroke-dashoffset:0"
       d="m 262.14286,240.75504 0,37.14286"
       id="path4331"
       inkscape:connector-curvature="0" />
    <text
       xml:space="preserve"
       style="font-size:9px;font-style:normal;font-variant:normal;font-weight:normal;font-stretch:normal;text-indent:0;text-align:start;text-decoration:none;line-height:125%;letter-spacing:0px;word-spacing:0px;text-transform:none;direction:ltr;block-progression:tb;writing-mode:lr-tb;text-anchor:start;baseline-shift:baseline;color:#000000;fill:#000000;fill-opacity:1;fill-rule:nonzero;stroke:none;marker:none;visibility:visible;display:inline;overflow:visible;enable-background:accumulate;font-family:Sans;-inkscape-font-specification:Sans"
       x="185.81731"
       y="213.3504"
       id="text5153"
       sodipodi:linespacing="125%"><tspan
         sodipodi:role="line"
         id="tspan5155"
         x="185.81731"
         y="213.3504">ARN1/ARN1*</tspan></text>
  </g>
</svg>
